<svg xmlns="http://www.w3.org/2000/svg" width="328" height="161" viewBox="0 0 328 161" fill="none" data-inject-url="https://images.ctfassets.net/sxag7u4cz1re/HzAVkaJxZX3DnlQDeH7u9/1cd4fcef595031da1c2698da0ac80b6a/awx-homepage-product_array-BA-transfers-US-localized.svg" class="css-laxumk">
<g filter="url(#filter0_d_3_20864--inject-004a096b-3658-483a-a7b5-31d4274eb814-1)">
<rect x="45" y="32.2363" width="192" height="56" rx="4" fill="white"></rect>
</g>
<path d="M60.918 49.1153V51.2363H61.506V49.1153L63.249 46.2733H62.563L61.212 48.5763L59.861 46.2733H59.175L60.918 49.1153ZM64.6249 47.7853C63.6589 47.7853 62.9449 48.5273 62.9449 49.5563C62.9449 50.5923 63.6589 51.3343 64.6249 51.3343C65.5909 51.3343 66.3049 50.5923 66.3049 49.5563C66.3049 48.5273 65.5909 47.7853 64.6249 47.7853ZM64.6249 48.2893C65.2269 48.2893 65.7449 48.7443 65.7449 49.5563C65.7449 50.3753 65.2269 50.8303 64.6249 50.8303C64.0229 50.8303 63.5049 50.3753 63.5049 49.5563C63.5049 48.7443 64.0229 48.2893 64.6249 48.2893ZM69.3941 50.7813V50.8093C69.3941 50.9773 69.4081 51.1593 69.4291 51.2363H69.9681C69.9471 51.1033 69.9261 50.8653 69.9261 50.6063V47.8833H69.3661V49.9063C69.3661 50.4383 69.0651 50.8303 68.5121 50.8303C67.9171 50.8303 67.6861 50.3893 67.6861 49.8993V47.8833H67.1261V49.9903C67.1261 50.7323 67.5741 51.3343 68.3861 51.3343C68.8271 51.3343 69.2331 51.1243 69.3941 50.7813ZM72.5279 50.3543C72.5839 50.7743 72.9829 51.3343 73.8649 51.3343C74.6629 51.3343 75.0759 50.8023 75.0759 50.3193C75.0759 49.8223 74.7539 49.4793 74.1659 49.3463L73.6199 49.2203C73.3259 49.1503 73.1789 49.0033 73.1789 48.7653C73.1789 48.4853 73.4519 48.2613 73.8019 48.2613C74.3339 48.2613 74.5089 48.6323 74.5509 48.8633L75.0479 48.6813C74.9709 48.3383 74.6699 47.7853 73.8019 47.7853C73.1649 47.7853 72.6329 48.2403 72.6329 48.8003C72.6329 49.2833 72.9549 49.6123 73.4659 49.7313L74.0119 49.8573C74.3199 49.9273 74.5229 50.0953 74.5229 50.3473C74.5229 50.6343 74.2709 50.8583 73.8719 50.8583C73.3679 50.8583 73.0809 50.5643 73.0319 50.1793L72.5279 50.3543ZM76.2956 49.2343C76.3306 48.7373 76.7226 48.2823 77.3036 48.2823C77.9406 48.2823 78.2836 48.7023 78.2976 49.2343H76.2956ZM78.3746 50.1093C78.2416 50.5083 77.9336 50.8303 77.3666 50.8303C76.7646 50.8303 76.2816 50.3753 76.2816 49.7383V49.7103H78.8646C78.8716 49.6613 78.8786 49.5843 78.8786 49.5143C78.8786 48.4923 78.3116 47.7853 77.2966 47.7853C76.4496 47.7853 75.7076 48.4923 75.7076 49.5493C75.7076 50.6763 76.4706 51.3343 77.3666 51.3343C78.1436 51.3343 78.6686 50.8653 78.8576 50.2843L78.3746 50.1093ZM80.2857 49.2623C80.2857 48.7373 80.5867 48.2893 81.1257 48.2893C81.7347 48.2893 81.9587 48.6813 81.9587 49.1713V51.2363H82.5187V49.0873C82.5187 48.3593 82.1267 47.7853 81.3217 47.7853C80.8807 47.7853 80.4887 47.9953 80.2717 48.3873V47.8833H79.7257V51.2363H80.2857V49.2623ZM85.9965 50.7533C85.9965 50.9703 86.0175 51.1593 86.0315 51.2363H86.5775C86.5635 51.1663 86.5425 50.9423 86.5425 50.6063V46.1753H85.9825V48.4223C85.8705 48.1423 85.5415 47.7853 84.8975 47.7853C83.9595 47.7853 83.3435 48.5833 83.3435 49.5563C83.3435 50.5503 83.9315 51.3343 84.8975 51.3343C85.4785 51.3343 85.8425 50.9913 85.9965 50.6623V50.7533ZM84.9465 50.8303C84.3165 50.8303 83.9035 50.2983 83.9035 49.5563C83.9035 48.8143 84.3095 48.2893 84.9465 48.2893C85.5835 48.2893 85.9965 48.8143 85.9965 49.5563C85.9965 50.2983 85.5765 50.8303 84.9465 50.8303Z" fill="#1A1D21"></path>
<path d="M62.948 67.2363H61.304V61.4523H59.264V60.3243C60.488 60.2883 61.34 59.6163 61.508 58.7283H62.948V67.2363ZM64.3215 66.2763C64.3215 65.7003 64.7895 65.2683 65.4135 65.2683C66.1575 65.2683 66.6015 65.8683 66.6015 66.6483C66.6015 68.4123 65.3775 69.1563 64.4895 69.2643V68.4963C65.0295 68.3763 65.6055 67.8603 65.6295 67.2003C65.5815 67.2363 65.4495 67.2723 65.3175 67.2723C64.7295 67.2723 64.3215 66.8523 64.3215 66.2763ZM67.5328 62.9883C67.5328 61.8843 67.7008 60.8163 68.2768 59.9523C68.8408 59.1123 69.7288 58.5483 71.0128 58.5483C72.3088 58.5483 73.2088 59.1123 73.7608 59.9523C74.3248 60.8163 74.5168 61.8843 74.5168 62.9883C74.5168 64.0923 74.3248 65.1483 73.7608 66.0123C73.2088 66.8523 72.3088 67.4163 71.0128 67.4163C69.7288 67.4163 68.8408 66.8523 68.2768 66.0123C67.7008 65.1483 67.5328 64.0923 67.5328 62.9883ZM69.1888 62.9883C69.1888 63.9843 69.3448 64.7763 69.7168 65.2923C70.0048 65.6883 70.4008 65.9523 71.0128 65.9523C71.6368 65.9523 72.0328 65.6883 72.3208 65.2923C72.6928 64.7763 72.8608 63.9843 72.8608 62.9883C72.8608 61.9923 72.6928 61.2003 72.3208 60.6843C72.0328 60.2883 71.6368 60.0243 71.0128 60.0243C70.4008 60.0243 70.0048 60.2883 69.7168 60.6843C69.3448 61.2003 69.1888 61.9923 69.1888 62.9883ZM75.6421 62.9883C75.6421 61.8843 75.8101 60.8163 76.3861 59.9523C76.9501 59.1123 77.8381 58.5483 79.1221 58.5483C80.4181 58.5483 81.3181 59.1123 81.8701 59.9523C82.4341 60.8163 82.6261 61.8843 82.6261 62.9883C82.6261 64.0923 82.4341 65.1483 81.8701 66.0123C81.3181 66.8523 80.4181 67.4163 79.1221 67.4163C77.8381 67.4163 76.9501 66.8523 76.3861 66.0123C75.8101 65.1483 75.6421 64.0923 75.6421 62.9883ZM77.2981 62.9883C77.2981 63.9843 77.4541 64.7763 77.8261 65.2923C78.1141 65.6883 78.5101 65.9523 79.1221 65.9523C79.7461 65.9523 80.1421 65.6883 80.4301 65.2923C80.8021 64.7763 80.9701 63.9843 80.9701 62.9883C80.9701 61.9923 80.8021 61.2003 80.4301 60.6843C80.1421 60.2883 79.7461 60.0243 79.1221 60.0243C78.5101 60.0243 78.1141 60.2883 77.8261 60.6843C77.4541 61.2003 77.2981 61.9923 77.2981 62.9883ZM83.7515 62.9883C83.7515 61.8843 83.9195 60.8163 84.4955 59.9523C85.0595 59.1123 85.9475 58.5483 87.2315 58.5483C88.5275 58.5483 89.4275 59.1123 89.9795 59.9523C90.5435 60.8163 90.7355 61.8843 90.7355 62.9883C90.7355 64.0923 90.5435 65.1483 89.9795 66.0123C89.4275 66.8523 88.5275 67.4163 87.2315 67.4163C85.9475 67.4163 85.0595 66.8523 84.4955 66.0123C83.9195 65.1483 83.7515 64.0923 83.7515 62.9883ZM85.4075 62.9883C85.4075 63.9843 85.5635 64.7763 85.9355 65.2923C86.2235 65.6883 86.6195 65.9523 87.2315 65.9523C87.8555 65.9523 88.2515 65.6883 88.5395 65.2923C88.9115 64.7763 89.0795 63.9843 89.0795 62.9883C89.0795 61.9923 88.9115 61.2003 88.5395 60.6843C88.2515 60.2883 87.8555 60.0243 87.2315 60.0243C86.6195 60.0243 86.2235 60.2883 85.9355 60.6843C85.5635 61.2003 85.4075 61.9923 85.4075 62.9883ZM91.6497 66.2283C91.6497 65.6283 92.1417 65.1363 92.7417 65.1363C93.3537 65.1363 93.8457 65.6283 93.8457 66.2283C93.8457 66.8283 93.3537 67.3203 92.7417 67.3203C92.1417 67.3203 91.6497 66.8283 91.6497 66.2283ZM94.7671 62.9883C94.7671 61.8843 94.9351 60.8163 95.5111 59.9523C96.0751 59.1123 96.9631 58.5483 98.2471 58.5483C99.5431 58.5483 100.443 59.1123 100.995 59.9523C101.559 60.8163 101.751 61.8843 101.751 62.9883C101.751 64.0923 101.559 65.1483 100.995 66.0123C100.443 66.8523 99.5431 67.4163 98.2471 67.4163C96.9631 67.4163 96.0751 66.8523 95.5111 66.0123C94.9351 65.1483 94.7671 64.0923 94.7671 62.9883ZM96.4231 62.9883C96.4231 63.9843 96.5791 64.7763 96.9511 65.2923C97.2391 65.6883 97.6351 65.9523 98.2471 65.9523C98.8711 65.9523 99.2671 65.6883 99.5551 65.2923C99.9271 64.7763 100.095 63.9843 100.095 62.9883C100.095 61.9923 99.9271 61.2003 99.5551 60.6843C99.2671 60.2883 98.8711 60.0243 98.2471 60.0243C97.6351 60.0243 97.2391 60.2883 96.9511 60.6843C96.5791 61.2003 96.4231 61.9923 96.4231 62.9883ZM102.877 62.9883C102.877 61.8843 103.045 60.8163 103.621 59.9523C104.185 59.1123 105.073 58.5483 106.357 58.5483C107.653 58.5483 108.553 59.1123 109.105 59.9523C109.669 60.8163 109.861 61.8843 109.861 62.9883C109.861 64.0923 109.669 65.1483 109.105 66.0123C108.553 66.8523 107.653 67.4163 106.357 67.4163C105.073 67.4163 104.185 66.8523 103.621 66.0123C103.045 65.1483 102.877 64.0923 102.877 62.9883ZM104.533 62.9883C104.533 63.9843 104.689 64.7763 105.061 65.2923C105.349 65.6883 105.745 65.9523 106.357 65.9523C106.981 65.9523 107.377 65.6883 107.665 65.2923C108.037 64.7763 108.205 63.9843 108.205 62.9883C108.205 61.9923 108.037 61.2003 107.665 60.6843C107.377 60.2883 106.981 60.0243 106.357 60.0243C105.745 60.0243 105.349 60.2883 105.061 60.6843C104.689 61.2003 104.533 61.9923 104.533 62.9883Z" fill="#1A1D21"></path>
<path d="M166.716 67.4283C164.904 67.4283 163.452 66.3123 163.452 64.2243V58.7283H165.108V64.1043C165.108 65.2203 165.732 65.8083 166.716 65.8083C167.724 65.8083 168.336 65.2203 168.336 64.1043V58.7283H169.992V64.2243C169.992 66.3123 168.54 67.4283 166.716 67.4283ZM177.65 60.7563L176.162 61.2123C176.078 60.7443 175.694 60.0123 174.614 60.0123C173.81 60.0123 173.282 60.5283 173.282 61.0923C173.282 61.5603 173.582 61.9323 174.206 62.0523L175.394 62.2803C176.942 62.5803 177.77 63.5883 177.77 64.7883C177.77 66.0963 176.678 67.4163 174.698 67.4163C172.442 67.4163 171.446 65.9643 171.314 64.7523L172.85 64.3443C172.922 65.1843 173.51 65.9403 174.71 65.9403C175.598 65.9403 176.09 65.4963 176.09 64.8963C176.09 64.4043 175.718 64.0203 175.058 63.8883L173.87 63.6483C172.514 63.3723 171.638 62.4963 171.638 61.2123C171.638 59.7003 172.994 58.5483 174.602 58.5483C176.666 58.5483 177.458 59.7963 177.65 60.7563ZM180.906 65.7003H182.226C183.618 65.7003 184.782 64.8363 184.782 62.9883C184.782 61.1403 183.63 60.2643 182.238 60.2643H180.906V65.7003ZM182.286 67.2363H179.25V58.7283H182.298C184.722 58.7283 186.498 60.3003 186.498 62.9883C186.498 65.6763 184.71 67.2363 182.286 67.2363Z" fill="#1A1D21"></path>
<g clip-path="url(#clip0_3_20864--inject-004a096b-3658-483a-a7b5-31d4274eb814-1)">
<rect x="195.02" y="56.3149" width="17.98" height="12.8428" rx="1.28428" fill="white"></rect>
<rect x="195.02" y="56.3149" width="17.98" height="12.8428" rx="1.28428" fill="white"></rect>
<mask id="mask0_3_20864--inject-004a096b-3658-483a-a7b5-31d4274eb814-1" style="mask-type:luminance" maskUnits="userSpaceOnUse" x="195" y="56" width="18" height="14">
<rect x="195.02" y="56.3149" width="17.98" height="12.8428" rx="1.28428" fill="white"></rect>
</mask>
<g mask="url(#mask0_3_20864--inject-004a096b-3658-483a-a7b5-31d4274eb814-1)">
<path fill-rule="evenodd" clip-rule="evenodd" d="M213 56.3149H195.02V57.1711H213V56.3149ZM213 58.0274H195.02V58.8836H213V58.0274ZM195.02 59.7396H213V60.5958H195.02V59.7396ZM213 61.4521H195.02V62.3083H213V61.4521ZM195.02 63.1645H213V64.0207H195.02V63.1645ZM213 64.8768H195.02V65.733H213V64.8768ZM195.02 66.5892H213V67.4454H195.02V66.5892ZM213 68.3016H195.02V69.1578H213V68.3016Z" fill="#D02F44"></path>
<rect x="195.02" y="56.3149" width="7.7057" height="5.99333" fill="#46467F"></rect>
<g filter="url(#filter1_d_3_20864--inject-004a096b-3658-483a-a7b5-31d4274eb814-1)">
<path fill-rule="evenodd" clip-rule="evenodd" d="M196.304 58.0271C196.54 58.0271 196.732 57.8354 196.732 57.599C196.732 57.3626 196.54 57.1709 196.304 57.1709C196.067 57.1709 195.876 57.3626 195.876 57.599C195.876 57.8354 196.067 58.0271 196.304 58.0271ZM198.016 58.0271C198.253 58.0271 198.444 57.8354 198.444 57.599C198.444 57.3626 198.253 57.1709 198.016 57.1709C197.78 57.1709 197.588 57.3626 197.588 57.599C197.588 57.8354 197.78 58.0271 198.016 58.0271ZM200.156 57.599C200.156 57.8354 199.965 58.0271 199.728 58.0271C199.492 58.0271 199.3 57.8354 199.3 57.599C199.3 57.3626 199.492 57.1709 199.728 57.1709C199.965 57.1709 200.156 57.3626 200.156 57.599ZM201.441 58.0271C201.677 58.0271 201.869 57.8354 201.869 57.599C201.869 57.3626 201.677 57.1709 201.441 57.1709C201.204 57.1709 201.013 57.3626 201.013 57.599C201.013 57.8354 201.204 58.0271 201.441 58.0271ZM197.588 58.4551C197.588 58.6916 197.396 58.8832 197.16 58.8832C196.923 58.8832 196.732 58.6916 196.732 58.4551C196.732 58.2187 196.923 58.027 197.16 58.027C197.396 58.027 197.588 58.2187 197.588 58.4551ZM198.872 58.8832C199.109 58.8832 199.3 58.6916 199.3 58.4551C199.3 58.2187 199.109 58.027 198.872 58.027C198.636 58.027 198.444 58.2187 198.444 58.4551C198.444 58.6916 198.636 58.8832 198.872 58.8832ZM201.013 58.4551C201.013 58.6916 200.821 58.8832 200.585 58.8832C200.348 58.8832 200.157 58.6916 200.157 58.4551C200.157 58.2187 200.348 58.027 200.585 58.027C200.821 58.027 201.013 58.2187 201.013 58.4551ZM201.441 59.7395C201.677 59.7395 201.869 59.5479 201.869 59.3114C201.869 59.075 201.677 58.8833 201.441 58.8833C201.204 58.8833 201.013 59.075 201.013 59.3114C201.013 59.5479 201.204 59.7395 201.441 59.7395ZM200.156 59.3114C200.156 59.5479 199.965 59.7395 199.728 59.7395C199.492 59.7395 199.3 59.5479 199.3 59.3114C199.3 59.075 199.492 58.8833 199.728 58.8833C199.965 58.8833 200.156 59.075 200.156 59.3114ZM198.016 59.7395C198.253 59.7395 198.444 59.5479 198.444 59.3114C198.444 59.075 198.253 58.8833 198.016 58.8833C197.78 58.8833 197.588 59.075 197.588 59.3114C197.588 59.5479 197.78 59.7395 198.016 59.7395ZM196.732 59.3114C196.732 59.5479 196.54 59.7395 196.304 59.7395C196.067 59.7395 195.876 59.5479 195.876 59.3114C195.876 59.075 196.067 58.8833 196.304 58.8833C196.54 58.8833 196.732 59.075 196.732 59.3114ZM197.16 60.5957C197.396 60.5957 197.588 60.404 197.588 60.1676C197.588 59.9311 197.396 59.7395 197.16 59.7395C196.923 59.7395 196.732 59.9311 196.732 60.1676C196.732 60.404 196.923 60.5957 197.16 60.5957ZM199.3 60.1676C199.3 60.404 199.109 60.5957 198.872 60.5957C198.636 60.5957 198.444 60.404 198.444 60.1676C198.444 59.9311 198.636 59.7395 198.872 59.7395C199.109 59.7395 199.3 59.9311 199.3 60.1676ZM200.585 60.5957C200.821 60.5957 201.013 60.404 201.013 60.1676C201.013 59.9311 200.821 59.7395 200.585 59.7395C200.348 59.7395 200.157 59.9311 200.157 60.1676C200.157 60.404 200.348 60.5957 200.585 60.5957ZM201.869 61.0237C201.869 61.2601 201.677 61.4518 201.441 61.4518C201.204 61.4518 201.013 61.2601 201.013 61.0237C201.013 60.7873 201.204 60.5956 201.441 60.5956C201.677 60.5956 201.869 60.7873 201.869 61.0237ZM199.728 61.4518C199.965 61.4518 200.156 61.2601 200.156 61.0237C200.156 60.7873 199.965 60.5956 199.728 60.5956C199.492 60.5956 199.3 60.7873 199.3 61.0237C199.3 61.2601 199.492 61.4518 199.728 61.4518ZM198.444 61.0237C198.444 61.2601 198.253 61.4518 198.016 61.4518C197.78 61.4518 197.588 61.2601 197.588 61.0237C197.588 60.7873 197.78 60.5956 198.016 60.5956C198.253 60.5956 198.444 60.7873 198.444 61.0237ZM196.304 61.4518C196.54 61.4518 196.732 61.2601 196.732 61.0237C196.732 60.7873 196.54 60.5956 196.304 60.5956C196.067 60.5956 195.876 60.7873 195.876 61.0237C195.876 61.2601 196.067 61.4518 196.304 61.4518Z" fill="url(#paint0_linear_3_20864--inject-004a096b-3658-483a-a7b5-31d4274eb814-1)"></path>
</g>
</g>
</g>
<g filter="url(#filter2_d_3_20864--inject-004a096b-3658-483a-a7b5-31d4274eb814-1)">
<rect x="59" y="76.2363" width="224" height="60" rx="4" fill="white"></rect>
</g>
<path d="M77.768 97.2363H78.552L77.176 94.8123C78.032 94.6763 78.56 94.0443 78.56 93.2203C78.56 92.3003 77.896 91.5643 76.848 91.5643H74.784V97.2363H75.456V94.8603H76.44L77.768 97.2363ZM75.456 94.2603V92.1643H76.744C77.432 92.1643 77.888 92.5803 77.888 93.2203C77.888 93.8523 77.432 94.2603 76.744 94.2603H75.456ZM79.7898 94.9483C79.8298 94.3803 80.2778 93.8603 80.9418 93.8603C81.6698 93.8603 82.0618 94.3403 82.0778 94.9483H79.7898ZM82.1658 95.9483C82.0138 96.4043 81.6618 96.7723 81.0138 96.7723C80.3258 96.7723 79.7738 96.2523 79.7738 95.5243V95.4923H82.7258C82.7338 95.4363 82.7418 95.3483 82.7418 95.2683C82.7418 94.1003 82.0938 93.2923 80.9338 93.2923C79.9658 93.2923 79.1178 94.1003 79.1178 95.3083C79.1178 96.5963 79.9898 97.3483 81.0138 97.3483C81.9018 97.3483 82.5018 96.8123 82.7178 96.1483L82.1658 95.9483ZM85.3419 93.8683C86.0299 93.8683 86.3419 94.3403 86.4459 94.7483L87.0219 94.5003C86.8619 93.8923 86.3259 93.2923 85.3419 93.2923C84.2619 93.2923 83.4459 94.1243 83.4459 95.3163C83.4459 96.4843 84.2459 97.3483 85.3499 97.3483C86.3339 97.3483 86.8699 96.7243 87.0539 96.1563L86.4939 95.9083C86.3819 96.2603 86.0779 96.7723 85.3499 96.7723C84.6699 96.7723 84.0859 96.2363 84.0859 95.3163C84.0859 94.3883 84.6699 93.8683 85.3419 93.8683ZM88.6078 97.2363V93.4043H87.9678V97.2363H88.6078ZM87.8078 91.8923C87.8078 92.1563 88.0238 92.3723 88.2878 92.3723C88.5518 92.3723 88.7678 92.1563 88.7678 91.8923C88.7678 91.6283 88.5518 91.4123 88.2878 91.4123C88.0238 91.4123 87.8078 91.6283 87.8078 91.8923ZM90.4984 98.7563V96.6443C90.6984 97.0043 91.1384 97.3483 91.7944 97.3483C92.8984 97.3483 93.5544 96.4603 93.5544 95.3163C93.5544 94.1723 92.9384 93.2923 91.8104 93.2923C91.1304 93.2923 90.6824 93.6523 90.4824 94.0443V93.4043H89.8584V98.7563H90.4984ZM91.6984 96.7723C90.9624 96.7723 90.4824 96.1643 90.4824 95.3163C90.4824 94.4683 90.9544 93.8683 91.6984 93.8683C92.4424 93.8683 92.9144 94.4683 92.9144 95.3163C92.9144 96.1643 92.4344 96.7723 91.6984 96.7723ZM95.1859 97.2363V93.4043H94.5459V97.2363H95.1859ZM94.3859 91.8923C94.3859 92.1563 94.6019 92.3723 94.8659 92.3723C95.1299 92.3723 95.3459 92.1563 95.3459 91.8923C95.3459 91.6283 95.1299 91.4123 94.8659 91.4123C94.6019 91.4123 94.3859 91.6283 94.3859 91.8923ZM96.8445 94.9483C96.8845 94.3803 97.3325 93.8603 97.9965 93.8603C98.7245 93.8603 99.1165 94.3403 99.1325 94.9483H96.8445ZM99.2205 95.9483C99.0685 96.4043 98.7165 96.7723 98.0685 96.7723C97.3805 96.7723 96.8285 96.2523 96.8285 95.5243V95.4923H99.7805C99.7885 95.4363 99.7965 95.3483 99.7965 95.2683C99.7965 94.1003 99.1485 93.2923 97.9885 93.2923C97.0205 93.2923 96.1725 94.1003 96.1725 95.3083C96.1725 96.5963 97.0445 97.3483 98.0685 97.3483C98.9565 97.3483 99.5565 96.8123 99.7725 96.1483L99.2205 95.9483ZM101.405 94.9803C101.405 94.3803 101.749 93.8683 102.365 93.8683C103.061 93.8683 103.317 94.3163 103.317 94.8763V97.2363H103.957V94.7803C103.957 93.9483 103.509 93.2923 102.589 93.2923C102.085 93.2923 101.637 93.5323 101.389 93.9803V93.4043H100.765V97.2363H101.405V94.9803ZM106.044 92.1883H105.444V92.8203C105.444 93.1803 105.276 93.4043 104.884 93.4043H104.636V93.9803H105.404V96.1883C105.404 96.8843 105.812 97.2763 106.444 97.2763C106.692 97.2763 106.876 97.2283 106.948 97.2043V96.6603C106.884 96.6763 106.74 96.7003 106.628 96.7003C106.22 96.7003 106.044 96.5003 106.044 96.1003V93.9803H106.948V93.4043H106.044V92.1883ZM109.602 97.4523C109.698 98.2603 110.386 98.8683 111.33 98.8683C112.762 98.8683 113.194 97.8923 113.194 96.9483V93.4043H112.562V93.9483C112.37 93.5723 111.954 93.2923 111.354 93.2923C110.314 93.2923 109.61 94.1163 109.61 95.1883C109.61 96.2603 110.322 97.0683 111.338 97.0683C111.962 97.0683 112.378 96.7243 112.554 96.3563V96.9723C112.554 97.7643 112.226 98.2923 111.33 98.2923C110.706 98.2923 110.282 97.8603 110.218 97.3003L109.602 97.4523ZM112.586 95.1803C112.586 95.9723 112.114 96.4923 111.418 96.4923C110.722 96.4923 110.25 95.9723 110.25 95.1803C110.25 94.3883 110.722 93.8683 111.418 93.8683C112.114 93.8683 112.586 94.3883 112.586 95.1803ZM114.852 94.9483C114.892 94.3803 115.34 93.8603 116.004 93.8603C116.732 93.8603 117.124 94.3403 117.14 94.9483H114.852ZM117.228 95.9483C117.076 96.4043 116.724 96.7723 116.076 96.7723C115.388 96.7723 114.836 96.2523 114.836 95.5243V95.4923H117.788C117.796 95.4363 117.804 95.3483 117.804 95.2683C117.804 94.1003 117.156 93.2923 115.996 93.2923C115.028 93.2923 114.18 94.1003 114.18 95.3083C114.18 96.5963 115.052 97.3483 116.076 97.3483C116.964 97.3483 117.564 96.8123 117.78 96.1483L117.228 95.9483ZM119.661 92.1883H119.061V92.8203C119.061 93.1803 118.893 93.4043 118.501 93.4043H118.253V93.9803H119.021V96.1883C119.021 96.8843 119.429 97.2763 120.061 97.2763C120.309 97.2763 120.493 97.2283 120.565 97.2043V96.6603C120.501 96.6763 120.357 96.7003 120.245 96.7003C119.837 96.7003 119.661 96.5003 119.661 96.1003V93.9803H120.565V93.4043H119.661V92.1883ZM121.132 96.2283C121.196 96.7083 121.652 97.3483 122.66 97.3483C123.572 97.3483 124.044 96.7403 124.044 96.1883C124.044 95.6203 123.676 95.2283 123.004 95.0763L122.38 94.9323C122.044 94.8523 121.876 94.6843 121.876 94.4123C121.876 94.0923 122.188 93.8363 122.588 93.8363C123.196 93.8363 123.396 94.2603 123.444 94.5243L124.012 94.3163C123.924 93.9243 123.58 93.2923 122.588 93.2923C121.86 93.2923 121.252 93.8123 121.252 94.4523C121.252 95.0043 121.62 95.3803 122.204 95.5163L122.828 95.6603C123.18 95.7403 123.412 95.9323 123.412 96.2203C123.412 96.5483 123.124 96.8043 122.668 96.8043C122.092 96.8043 121.764 96.4683 121.708 96.0283L121.132 96.2283Z" fill="#1A1D21"></path>
<path d="M78.34 119.446C76.086 119.446 74.644 118.228 74.644 116.576C74.644 115.456 75.386 114.518 76.422 114.154C75.47 113.804 74.868 112.852 74.868 111.914C74.868 110.262 76.338 109.1 78.34 109.1C80.356 109.1 81.826 110.262 81.826 111.914C81.826 112.838 81.224 113.804 80.258 114.154C81.294 114.518 82.05 115.456 82.05 116.576C82.05 118.228 80.608 119.446 78.34 119.446ZM78.34 113.44C79.306 113.412 79.908 112.824 79.908 112.04C79.908 111.326 79.32 110.71 78.34 110.71C77.374 110.71 76.786 111.326 76.786 112.04C76.786 112.824 77.388 113.412 78.34 113.44ZM78.34 117.836C79.502 117.836 80.132 117.15 80.132 116.38C80.132 115.596 79.516 114.896 78.34 114.896C77.178 114.896 76.562 115.596 76.562 116.38C76.562 117.15 77.192 117.836 78.34 117.836ZM83.3533 114.28C83.3533 112.992 83.5493 111.746 84.2213 110.738C84.8793 109.758 85.9153 109.1 87.4133 109.1C88.9253 109.1 89.9753 109.758 90.6193 110.738C91.2773 111.746 91.5013 112.992 91.5013 114.28C91.5013 115.568 91.2773 116.8 90.6193 117.808C89.9753 118.788 88.9253 119.446 87.4133 119.446C85.9153 119.446 84.8793 118.788 84.2213 117.808C83.5493 116.8 83.3533 115.568 83.3533 114.28ZM85.2853 114.28C85.2853 115.442 85.4673 116.366 85.9013 116.968C86.2373 117.43 86.6993 117.738 87.4133 117.738C88.1413 117.738 88.6033 117.43 88.9393 116.968C89.3733 116.366 89.5693 115.442 89.5693 114.28C89.5693 113.118 89.3733 112.194 88.9393 111.592C88.6033 111.13 88.1413 110.822 87.4133 110.822C86.6993 110.822 86.2373 111.13 85.9013 111.592C85.4673 112.194 85.2853 113.118 85.2853 114.28ZM92.8143 114.28C92.8143 112.992 93.0103 111.746 93.6823 110.738C94.3403 109.758 95.3763 109.1 96.8743 109.1C98.3863 109.1 99.4363 109.758 100.08 110.738C100.738 111.746 100.962 112.992 100.962 114.28C100.962 115.568 100.738 116.8 100.08 117.808C99.4363 118.788 98.3863 119.446 96.8743 119.446C95.3763 119.446 94.3403 118.788 93.6823 117.808C93.0103 116.8 92.8143 115.568 92.8143 114.28ZM94.7463 114.28C94.7463 115.442 94.9283 116.366 95.3623 116.968C95.6983 117.43 96.1603 117.738 96.8743 117.738C97.6023 117.738 98.0643 117.43 98.4003 116.968C98.8343 116.366 99.0303 115.442 99.0303 114.28C99.0303 113.118 98.8343 112.194 98.4003 111.592C98.0643 111.13 97.6023 110.822 96.8743 110.822C96.1603 110.822 95.6983 111.13 95.3623 111.592C94.9283 112.194 94.7463 113.118 94.7463 114.28ZM102.029 118.06C102.029 117.36 102.603 116.786 103.303 116.786C104.017 116.786 104.591 117.36 104.591 118.06C104.591 118.76 104.017 119.334 103.303 119.334C102.603 119.334 102.029 118.76 102.029 118.06ZM111.302 112.502C111.302 111.452 110.448 110.752 109.482 110.752C108.502 110.752 107.662 111.438 107.662 112.502C107.662 113.594 108.488 114.266 109.482 114.266C110.448 114.266 111.302 113.58 111.302 112.502ZM106.052 118.9L106.556 117.332C106.934 117.542 107.662 117.752 108.334 117.752C110.294 117.752 111.456 116.618 111.554 114.784C111.176 115.414 110.308 115.89 109.188 115.89C107.382 115.89 105.772 114.644 105.772 112.558C105.772 110.528 107.41 109.1 109.524 109.1C111.624 109.1 113.458 110.598 113.458 113.748C113.458 117.332 111.708 119.446 108.348 119.446C107.522 119.446 106.556 119.222 106.052 118.9ZM114.506 117.094V115.022L118.692 109.31H121.142V115.4H122.78V117.094H121.142V119.236H119.224V117.094H114.506ZM119.224 115.4V111.284L116.228 115.4H119.224Z" fill="#1A1D21"></path>
<path d="M220.984 119.236H219.416L219.29 118.102C218.842 118.774 217.862 119.446 216.364 119.446C213.69 119.446 211.408 117.486 211.408 114.28C211.408 111.074 213.802 109.1 216.49 109.1C219.094 109.1 220.536 110.626 221.026 112.152L219.178 112.81C218.926 111.928 218.1 110.906 216.49 110.906C214.992 110.906 213.368 111.928 213.368 114.28C213.368 116.52 214.838 117.682 216.504 117.682C218.338 117.682 219.052 116.45 219.164 115.75H216.028V114.07H220.984V119.236ZM222.934 109.31H226.504C228.436 109.31 229.528 110.444 229.528 111.984C229.528 113.006 228.912 113.832 228.086 114.112C229.052 114.35 229.836 115.232 229.836 116.464C229.836 118.074 228.632 119.236 226.77 119.236H222.934V109.31ZM224.838 113.412H226.21C227.092 113.412 227.624 112.922 227.624 112.166C227.624 111.41 227.134 110.934 226.196 110.934H224.838V113.412ZM224.838 117.626H226.406C227.344 117.626 227.904 117.136 227.904 116.338C227.904 115.554 227.4 115.008 226.434 115.008H224.838V117.626ZM233.561 113.832H235.087C236.053 113.832 236.641 113.272 236.641 112.418C236.641 111.536 236.053 110.99 235.087 110.99H233.561V113.832ZM235.325 115.498H233.547V119.236H231.615V109.31H235.325C237.285 109.31 238.587 110.612 238.587 112.404C238.587 114.21 237.285 115.498 235.325 115.498Z" fill="#1A1D21"></path>
<g clip-path="url(#clip1_3_20864--inject-004a096b-3658-483a-a7b5-31d4274eb814-1)">
<rect x="246.93" y="106.711" width="21.07" height="15.05" rx="1.505" fill="white"></rect>
<rect x="246.93" y="106.711" width="21.07" height="15.05" rx="1.505" fill="white"></rect>
<mask id="mask1_3_20864--inject-004a096b-3658-483a-a7b5-31d4274eb814-1" style="mask-type:luminance" maskUnits="userSpaceOnUse" x="246" y="106" width="22" height="16">
<rect x="246.93" y="106.711" width="21.07" height="15.05" rx="1.505" fill="white"></rect>
</mask>
<g mask="url(#mask1_3_20864--inject-004a096b-3658-483a-a7b5-31d4274eb814-1)">
<rect x="246.93" y="106.711" width="21.07" height="15.05" fill="#0A17A7"></rect>
<path fill-rule="evenodd" clip-rule="evenodd" d="M251.952 116.744L244.843 121.54L245.965 123.203L254.957 117.138V122.764H259.973V117.138L268.965 123.203L270.087 121.54L262.978 116.744H268V111.728H262.978L270.087 106.933L268.965 105.269L259.973 111.334V105.708H254.957V111.334L245.965 105.269L244.843 106.933L251.952 111.728H246.93V116.744H251.952Z" fill="white"></path>
<path d="M260.978 111.477L270.508 105.207" stroke="#DB1F35" stroke-width="0.501667" stroke-linecap="round"></path>
<path d="M261.99 117.019L270.533 122.777" stroke="#DB1F35" stroke-width="0.501667" stroke-linecap="round"></path>
<path d="M252.954 111.46L244.042 105.454" stroke="#DB1F35" stroke-width="0.501667" stroke-linecap="round"></path>
<path d="M253.92 116.949L244.042 123.5" stroke="#DB1F35" stroke-width="0.501667" stroke-linecap="round"></path>
<path fill-rule="evenodd" clip-rule="evenodd" d="M246.93 115.741H255.96V121.761H258.97V115.741H268V112.731H258.97V106.711H255.96V112.731H246.93V115.741Z" fill="#E6273E"></path>
</g>
</g>
<g filter="url(#filter3_d_3_20864--inject-004a096b-3658-483a-a7b5-31d4274eb814-1)">
<g filter="url(#filter4_d_3_20864--inject-004a096b-3658-483a-a7b5-31d4274eb814-1)">
<circle cx="245.5" cy="73.7363" r="22.5" fill="white"></circle>
<circle cx="245.5" cy="73.7363" r="21.5625" stroke="white" stroke-width="1.875"></circle>
</g>
<path fill-rule="evenodd" clip-rule="evenodd" d="M254.64 73.744C255.292 73.4455 256.076 73.6868 256.442 74.3202C256.83 74.9928 256.6 75.8529 255.927 76.2412L252.882 77.999C252.21 78.3874 251.35 78.1569 250.962 77.4843L249.204 74.4397C248.815 73.7671 249.046 72.907 249.718 72.5187C250.391 72.1304 251.251 72.3608 251.639 73.0334L251.815 73.338C251.61 70.0286 248.861 67.4082 245.499 67.4082C243.647 67.4082 241.981 68.204 240.824 69.4723L238.833 67.4821C240.501 65.7055 242.871 64.5957 245.499 64.5957C250.548 64.5957 254.64 68.6881 254.64 73.7363C254.64 73.7389 254.64 73.7414 254.64 73.744ZM236.36 73.899L236.359 73.8997C235.686 74.288 234.826 74.0576 234.438 73.385C234.05 72.7124 234.28 71.8524 234.953 71.464L237.997 69.7062C238.67 69.3179 239.53 69.5483 239.918 70.2209L241.676 73.2656C242.064 73.9382 241.834 74.7982 241.161 75.1865C240.489 75.5749 239.629 75.3444 239.24 74.6718L239.24 74.6706C239.691 77.7225 242.322 80.0645 245.499 80.0645C247.099 80.0645 248.559 79.4712 249.673 78.4928L251.665 80.4844C250.039 81.9705 247.875 82.877 245.499 82.877C240.505 82.877 236.447 78.8722 236.36 73.899Z" fill="#6C747F"></path>
</g>
<defs>
<filter id="filter0_d_3_20864--inject-004a096b-3658-483a-a7b5-31d4274eb814-1" x="37" y="24.2363" width="208" height="72" filterUnits="userSpaceOnUse" color-interpolation-filters="sRGB">
<feFlood flood-opacity="0" result="BackgroundImageFix"></feFlood>
<feColorMatrix in="SourceAlpha" type="matrix" values="0 0 0 0 0 0 0 0 0 0 0 0 0 0 0 0 0 0 127 0" result="hardAlpha"></feColorMatrix>
<feOffset></feOffset>
<feGaussianBlur stdDeviation="4"></feGaussianBlur>
<feColorMatrix type="matrix" values="0 0 0 0 0 0 0 0 0 0 0 0 0 0 0 0 0 0 0.08 0"></feColorMatrix>
<feBlend mode="normal" in2="BackgroundImageFix" result="effect1_dropShadow_3_20864"></feBlend>
<feBlend mode="normal" in="SourceGraphic" in2="effect1_dropShadow_3_20864" result="shape"></feBlend>
</filter>
<filter id="filter1_d_3_20864--inject-004a096b-3658-483a-a7b5-31d4274eb814-1" x="195.876" y="57.1709" width="5.99332" height="4.9229" filterUnits="userSpaceOnUse" color-interpolation-filters="sRGB">
<feFlood flood-opacity="0" result="BackgroundImageFix"></feFlood>
<feColorMatrix in="SourceAlpha" type="matrix" values="0 0 0 0 0 0 0 0 0 0 0 0 0 0 0 0 0 0 127 0" result="hardAlpha"></feColorMatrix>
<feOffset dy="0.642142"></feOffset>
<feColorMatrix type="matrix" values="0 0 0 0 0 0 0 0 0 0 0 0 0 0 0 0 0 0 0.06 0"></feColorMatrix>
<feBlend mode="normal" in2="BackgroundImageFix" result="effect1_dropShadow_3_20864"></feBlend>
<feBlend mode="normal" in="SourceGraphic" in2="effect1_dropShadow_3_20864" result="shape"></feBlend>
</filter>
<filter id="filter2_d_3_20864--inject-004a096b-3658-483a-a7b5-31d4274eb814-1" x="51" y="68.2363" width="240" height="76" filterUnits="userSpaceOnUse" color-interpolation-filters="sRGB">
<feFlood flood-opacity="0" result="BackgroundImageFix"></feFlood>
<feColorMatrix in="SourceAlpha" type="matrix" values="0 0 0 0 0 0 0 0 0 0 0 0 0 0 0 0 0 0 127 0" result="hardAlpha"></feColorMatrix>
<feOffset></feOffset>
<feGaussianBlur stdDeviation="4"></feGaussianBlur>
<feColorMatrix type="matrix" values="0 0 0 0 0 0 0 0 0 0 0 0 0 0 0 0 0 0 0.08 0"></feColorMatrix>
<feBlend mode="normal" in2="BackgroundImageFix" result="effect1_dropShadow_3_20864"></feBlend>
<feBlend mode="normal" in="SourceGraphic" in2="effect1_dropShadow_3_20864" result="shape"></feBlend>
</filter>
<filter id="filter3_d_3_20864--inject-004a096b-3658-483a-a7b5-31d4274eb814-1" x="189.25" y="17.4863" width="112.5" height="112.5" filterUnits="userSpaceOnUse" color-interpolation-filters="sRGB">
<feFlood flood-opacity="0" result="BackgroundImageFix"></feFlood>
<feColorMatrix in="SourceAlpha" type="matrix" values="0 0 0 0 0 0 0 0 0 0 0 0 0 0 0 0 0 0 127 0" result="hardAlpha"></feColorMatrix>
<feOffset></feOffset>
<feGaussianBlur stdDeviation="16.875"></feGaussianBlur>
<feColorMatrix type="matrix" values="0 0 0 0 0 0 0 0 0 0 0 0 0 0 0 0 0 0 0.08 0"></feColorMatrix>
<feBlend mode="normal" in2="BackgroundImageFix" result="effect1_dropShadow_3_20864"></feBlend>
<feBlend mode="normal" in="SourceGraphic" in2="effect1_dropShadow_3_20864" result="shape"></feBlend>
</filter>
<filter id="filter4_d_3_20864--inject-004a096b-3658-483a-a7b5-31d4274eb814-1" x="200.5" y="28.7363" width="90" height="90" filterUnits="userSpaceOnUse" color-interpolation-filters="sRGB">
<feFlood flood-opacity="0" result="BackgroundImageFix"></feFlood>
<feColorMatrix in="SourceAlpha" type="matrix" values="0 0 0 0 0 0 0 0 0 0 0 0 0 0 0 0 0 0 127 0" result="hardAlpha"></feColorMatrix>
<feOffset></feOffset>
<feGaussianBlur stdDeviation="11.25"></feGaussianBlur>
<feColorMatrix type="matrix" values="0 0 0 0 0 0 0 0 0 0 0 0 0 0 0 0 0 0 0.08 0"></feColorMatrix>
<feBlend mode="normal" in2="BackgroundImageFix" result="effect1_dropShadow_3_20864"></feBlend>
<feBlend mode="normal" in="SourceGraphic" in2="effect1_dropShadow_3_20864" result="shape"></feBlend>
</filter>
<linearGradient id="paint0_linear_3_20864--inject-004a096b-3658-483a-a7b5-31d4274eb814-1" x1="195.876" y1="57.1709" x2="195.876" y2="61.4518" gradientUnits="userSpaceOnUse">
<stop stop-color="white"></stop>
<stop offset="1" stop-color="#F0F0F0"></stop>
</linearGradient>
<clipPath id="clip0_3_20864--inject-004a096b-3658-483a-a7b5-31d4274eb814-1">
<rect x="195.02" y="56.3149" width="17.98" height="12.8428" rx="1.28428" fill="white"></rect>
</clipPath>
<clipPath id="clip1_3_20864--inject-004a096b-3658-483a-a7b5-31d4274eb814-1">
<rect x="246.93" y="106.711" width="21.07" height="15.05" rx="1.505" fill="white"></rect>
</clipPath>
</defs>
</svg>